<svg id="visual" viewBox="0 0 960 540" width="960" height="540" xmlns="http://www.w3.org/2000/svg" xmlns:xlink="http://www.w3.org/1999/xlink" version="1.1"><path d="M0 466L22.8 454.2C45.7 442.3 91.3 418.7 137 400.5C182.7 382.3 228.3 369.7 274 384.2C319.7 398.7 365.3 440.3 411.2 466.7C457 493 503 504 548.8 503.7C594.7 503.3 640.3 491.7 686 485C731.7 478.3 777.3 476.7 823 468C868.7 459.3 914.3 443.7 937.2 435.8L960 428L960 541L937.2 541C914.3 541 868.7 541 823 541C777.3 541 731.7 541 686 541C640.3 541 594.7 541 548.8 541C503 541 457 541 411.2 541C365.3 541 319.7 541 274 541C228.3 541 182.7 541 137 541C91.3 541 45.7 541 22.8 541L0 541Z" fill="#0066FF" stroke-linecap="round" stroke-linejoin="miter"></path></svg>